<mxfile host="app.diagrams.net" modified="2024-04-16T20:09:32.358Z" agent="Mozilla/5.0 (Windows NT 10.0; Win64; x64) AppleWebKit/537.36 (KHTML, like Gecko) Chrome/120.0.0.0 Safari/537.36" etag="QXoyiUzlRRTXhs9uzW7w" version="24.2.5" type="device">
  <diagram name="Página-1" id="Pfu4XI9xLDkoOjVs5tji">
    <mxGraphModel dx="1434" dy="746" grid="1" gridSize="10" guides="1" tooltips="1" connect="1" arrows="1" fold="1" page="1" pageScale="1" pageWidth="827" pageHeight="1169" math="0" shadow="0">
      <root>
        <mxCell id="0" />
        <mxCell id="1" parent="0" />
        <mxCell id="Kl2wzFnBSWAyeiBoLXPR-1" value="GELADEIRA" style="rounded=1;whiteSpace=wrap;html=1;" vertex="1" parent="1">
          <mxGeometry x="310" y="250" width="124" height="300" as="geometry" />
        </mxCell>
        <mxCell id="Kl2wzFnBSWAyeiBoLXPR-2" value="" style="ellipse;whiteSpace=wrap;html=1;fillColor=#e1d5e7;strokeColor=#9673a6;direction=south;" vertex="1" parent="1">
          <mxGeometry x="434" y="350" width="12" height="12" as="geometry" />
        </mxCell>
        <mxCell id="Kl2wzFnBSWAyeiBoLXPR-5" value="SENSOR DE DISTÂNCIA" style="text;html=1;align=center;verticalAlign=middle;whiteSpace=wrap;rounded=0;" vertex="1" parent="1">
          <mxGeometry x="434" y="330" width="166" height="30" as="geometry" />
        </mxCell>
        <mxCell id="Kl2wzFnBSWAyeiBoLXPR-7" value="DISPLAY" style="rounded=1;whiteSpace=wrap;html=1;" vertex="1" parent="1">
          <mxGeometry x="342" y="270" width="60" height="50" as="geometry" />
        </mxCell>
        <mxCell id="Kl2wzFnBSWAyeiBoLXPR-8" value="TECLADO&amp;nbsp;" style="rounded=0;whiteSpace=wrap;html=1;" vertex="1" parent="1">
          <mxGeometry x="330" y="332" width="84" height="30" as="geometry" />
        </mxCell>
        <mxCell id="Kl2wzFnBSWAyeiBoLXPR-9" value="" style="labelPosition=center;verticalLabelPosition=middle;align=center;html=1;shape=mxgraph.basic.button;dx=10;whiteSpace=wrap;" vertex="1" parent="1">
          <mxGeometry x="402" y="430" width="10" height="10" as="geometry" />
        </mxCell>
        <mxCell id="Kl2wzFnBSWAyeiBoLXPR-12" value="ALTERNAR MODO DO DISPLAY" style="text;html=1;align=center;verticalAlign=middle;whiteSpace=wrap;rounded=0;" vertex="1" parent="1">
          <mxGeometry x="580" y="500" width="190" height="30" as="geometry" />
        </mxCell>
        <mxCell id="Kl2wzFnBSWAyeiBoLXPR-13" value="BUZZER" style="rounded=1;whiteSpace=wrap;html=1;" vertex="1" parent="1">
          <mxGeometry x="330" y="420" width="50" height="30" as="geometry" />
        </mxCell>
        <mxCell id="Kl2wzFnBSWAyeiBoLXPR-14" value="" style="ellipse;whiteSpace=wrap;html=1;fillColor=#e1d5e7;strokeColor=#9673a6;direction=south;" vertex="1" parent="1">
          <mxGeometry x="298" y="350" width="12" height="12" as="geometry" />
        </mxCell>
        <mxCell id="Kl2wzFnBSWAyeiBoLXPR-15" value="SENSOR DE TEMPERATURA" style="text;html=1;align=center;verticalAlign=middle;whiteSpace=wrap;rounded=0;" vertex="1" parent="1">
          <mxGeometry x="130" y="330" width="166" height="30" as="geometry" />
        </mxCell>
        <mxCell id="Kl2wzFnBSWAyeiBoLXPR-16" value="" style="rounded=0;whiteSpace=wrap;html=1;" vertex="1" parent="1">
          <mxGeometry x="412" y="367" width="20" height="20" as="geometry" />
        </mxCell>
        <mxCell id="Kl2wzFnBSWAyeiBoLXPR-18" value="" style="endArrow=classic;html=1;rounded=0;exitX=1.1;exitY=0.743;exitDx=0;exitDy=0;exitPerimeter=0;" edge="1" parent="1" source="Kl2wzFnBSWAyeiBoLXPR-9" target="Kl2wzFnBSWAyeiBoLXPR-12">
          <mxGeometry width="50" height="50" relative="1" as="geometry">
            <mxPoint x="380" y="520" as="sourcePoint" />
            <mxPoint x="430" y="470" as="targetPoint" />
          </mxGeometry>
        </mxCell>
        <mxCell id="Kl2wzFnBSWAyeiBoLXPR-19" value="" style="endArrow=classic;html=1;rounded=0;" edge="1" parent="1" source="Kl2wzFnBSWAyeiBoLXPR-16">
          <mxGeometry width="50" height="50" relative="1" as="geometry">
            <mxPoint x="550" y="430" as="sourcePoint" />
            <mxPoint x="510" y="390" as="targetPoint" />
          </mxGeometry>
        </mxCell>
        <mxCell id="Kl2wzFnBSWAyeiBoLXPR-20" value="LED DA PORTA" style="text;html=1;align=center;verticalAlign=middle;whiteSpace=wrap;rounded=0;" vertex="1" parent="1">
          <mxGeometry x="510" y="370" width="100" height="30" as="geometry" />
        </mxCell>
        <mxCell id="Kl2wzFnBSWAyeiBoLXPR-21" value="" style="rounded=0;whiteSpace=wrap;html=1;" vertex="1" parent="1">
          <mxGeometry x="320" y="640" width="120" height="260" as="geometry" />
        </mxCell>
        <mxCell id="Kl2wzFnBSWAyeiBoLXPR-22" value="PIC18F4550" style="text;html=1;align=center;verticalAlign=middle;whiteSpace=wrap;rounded=0;" vertex="1" parent="1">
          <mxGeometry x="360" y="610" width="70" height="30" as="geometry" />
        </mxCell>
        <mxCell id="Kl2wzFnBSWAyeiBoLXPR-23" value="RD1" style="text;html=1;align=center;verticalAlign=middle;whiteSpace=wrap;rounded=0;" vertex="1" parent="1">
          <mxGeometry x="390" y="680" width="60" height="30" as="geometry" />
        </mxCell>
        <mxCell id="Kl2wzFnBSWAyeiBoLXPR-24" value="RB0" style="text;html=1;align=center;verticalAlign=middle;whiteSpace=wrap;rounded=0;" vertex="1" parent="1">
          <mxGeometry x="310" y="720" width="60" height="30" as="geometry" />
        </mxCell>
        <mxCell id="Kl2wzFnBSWAyeiBoLXPR-25" value="RB1" style="text;html=1;align=center;verticalAlign=middle;whiteSpace=wrap;rounded=0;" vertex="1" parent="1">
          <mxGeometry x="310" y="740" width="60" height="30" as="geometry" />
        </mxCell>
        <mxCell id="Kl2wzFnBSWAyeiBoLXPR-26" value="RB2" style="text;html=1;align=center;verticalAlign=middle;whiteSpace=wrap;rounded=0;" vertex="1" parent="1">
          <mxGeometry x="310" y="760" width="60" height="30" as="geometry" />
        </mxCell>
        <mxCell id="Kl2wzFnBSWAyeiBoLXPR-27" value="RB3" style="text;html=1;align=center;verticalAlign=middle;whiteSpace=wrap;rounded=0;" vertex="1" parent="1">
          <mxGeometry x="310" y="780" width="60" height="30" as="geometry" />
        </mxCell>
        <mxCell id="Kl2wzFnBSWAyeiBoLXPR-28" value="RB4" style="text;html=1;align=center;verticalAlign=middle;whiteSpace=wrap;rounded=0;" vertex="1" parent="1">
          <mxGeometry x="310" y="800" width="60" height="30" as="geometry" />
        </mxCell>
        <mxCell id="Kl2wzFnBSWAyeiBoLXPR-29" value="RB5" style="text;html=1;align=center;verticalAlign=middle;whiteSpace=wrap;rounded=0;" vertex="1" parent="1">
          <mxGeometry x="310" y="820" width="60" height="30" as="geometry" />
        </mxCell>
        <mxCell id="Kl2wzFnBSWAyeiBoLXPR-30" value="RB6" style="text;html=1;align=center;verticalAlign=middle;whiteSpace=wrap;rounded=0;" vertex="1" parent="1">
          <mxGeometry x="310" y="840" width="60" height="30" as="geometry" />
        </mxCell>
        <mxCell id="Kl2wzFnBSWAyeiBoLXPR-31" value="RB7" style="text;html=1;align=center;verticalAlign=middle;whiteSpace=wrap;rounded=0;" vertex="1" parent="1">
          <mxGeometry x="310" y="860" width="60" height="30" as="geometry" />
        </mxCell>
        <mxCell id="Kl2wzFnBSWAyeiBoLXPR-32" value="RD0" style="text;html=1;align=center;verticalAlign=middle;whiteSpace=wrap;rounded=0;" vertex="1" parent="1">
          <mxGeometry x="390" y="660" width="60" height="30" as="geometry" />
        </mxCell>
        <mxCell id="Kl2wzFnBSWAyeiBoLXPR-33" value="RA1" style="text;html=1;align=center;verticalAlign=middle;whiteSpace=wrap;rounded=0;" vertex="1" parent="1">
          <mxGeometry x="310" y="650" width="60" height="30" as="geometry" />
        </mxCell>
        <mxCell id="Kl2wzFnBSWAyeiBoLXPR-34" value="RA2" style="text;html=1;align=center;verticalAlign=middle;whiteSpace=wrap;rounded=0;" vertex="1" parent="1">
          <mxGeometry x="310" y="670" width="60" height="30" as="geometry" />
        </mxCell>
        <mxCell id="Kl2wzFnBSWAyeiBoLXPR-36" value="LED" style="text;html=1;align=center;verticalAlign=middle;whiteSpace=wrap;rounded=0;" vertex="1" parent="1">
          <mxGeometry x="424" y="660" width="70" height="30" as="geometry" />
        </mxCell>
        <mxCell id="Kl2wzFnBSWAyeiBoLXPR-37" value="BUZZER" style="text;html=1;align=center;verticalAlign=middle;whiteSpace=wrap;rounded=0;" vertex="1" parent="1">
          <mxGeometry x="440" y="680" width="60" height="30" as="geometry" />
        </mxCell>
        <mxCell id="Kl2wzFnBSWAyeiBoLXPR-38" value="TECLADO MATRICIAL" style="text;html=1;align=center;verticalAlign=middle;whiteSpace=wrap;rounded=0;" vertex="1" parent="1">
          <mxGeometry x="180" y="790" width="130" height="30" as="geometry" />
        </mxCell>
        <mxCell id="Kl2wzFnBSWAyeiBoLXPR-39" value="SENSOR DE TEMPERATURA" style="text;html=1;align=center;verticalAlign=middle;whiteSpace=wrap;rounded=0;" vertex="1" parent="1">
          <mxGeometry x="120" y="650" width="210" height="30" as="geometry" />
        </mxCell>
        <mxCell id="Kl2wzFnBSWAyeiBoLXPR-40" value="SENSOR DE DISTÂNCIA" style="text;html=1;align=center;verticalAlign=middle;whiteSpace=wrap;rounded=0;" vertex="1" parent="1">
          <mxGeometry x="135" y="670" width="205" height="30" as="geometry" />
        </mxCell>
        <mxCell id="Kl2wzFnBSWAyeiBoLXPR-41" value="RD5" style="text;html=1;align=center;verticalAlign=middle;whiteSpace=wrap;rounded=0;" vertex="1" parent="1">
          <mxGeometry x="385" y="800" width="60" height="30" as="geometry" />
        </mxCell>
        <mxCell id="Kl2wzFnBSWAyeiBoLXPR-42" value="RD4" style="text;html=1;align=center;verticalAlign=middle;whiteSpace=wrap;rounded=0;" vertex="1" parent="1">
          <mxGeometry x="385" y="780" width="60" height="30" as="geometry" />
        </mxCell>
        <mxCell id="Kl2wzFnBSWAyeiBoLXPR-43" value="RD7" style="text;html=1;align=center;verticalAlign=middle;whiteSpace=wrap;rounded=0;" vertex="1" parent="1">
          <mxGeometry x="385" y="840" width="60" height="30" as="geometry" />
        </mxCell>
        <mxCell id="Kl2wzFnBSWAyeiBoLXPR-44" value="RD6" style="text;html=1;align=center;verticalAlign=middle;whiteSpace=wrap;rounded=0;" vertex="1" parent="1">
          <mxGeometry x="385" y="820" width="60" height="30" as="geometry" />
        </mxCell>
        <mxCell id="Kl2wzFnBSWAyeiBoLXPR-46" value="DISPLAY" style="text;html=1;align=center;verticalAlign=middle;whiteSpace=wrap;rounded=0;" vertex="1" parent="1">
          <mxGeometry x="445" y="810" width="60" height="30" as="geometry" />
        </mxCell>
        <mxCell id="Kl2wzFnBSWAyeiBoLXPR-47" value="RE3" style="text;html=1;align=center;verticalAlign=middle;whiteSpace=wrap;rounded=0;" vertex="1" parent="1">
          <mxGeometry x="385" y="870" width="60" height="30" as="geometry" />
        </mxCell>
        <mxCell id="Kl2wzFnBSWAyeiBoLXPR-48" value="PUSH BUTTON" style="text;html=1;align=center;verticalAlign=middle;whiteSpace=wrap;rounded=0;" vertex="1" parent="1">
          <mxGeometry x="440" y="870" width="106" height="30" as="geometry" />
        </mxCell>
      </root>
    </mxGraphModel>
  </diagram>
</mxfile>
